<svg viewBox="0 0 84 80.81" xmlns="http://www.w3.org/2000/svg" preserveAspectRatio="xMidYMid meet">
  <g transform="matrix(-1.35593,0,0,-1.35593,85.39,83.39)" fill="black">
    <path d="M32,19.11A12.90151,12.90151,0,0,0,19.11,32c.70455,17.101,25.07807,17.096,25.78005-.0001A12.90153,12.90153,0,0,0,32,19.11Zm0,18.82c-7.8369-.24891-7.835-11.61228.00013-11.86C39.83689,26.31888,39.83506,37.68225,32,37.93Z"/>
    <path d="M32,47.89A15.89467,15.89467,0,0,1,17.21,37.77,9.76652,9.76652,0,0,1,3.6,39.96,29.54243,29.54243,0,0,0,32,61.5C41.00139,61.18214,40.997,48.20693,32,47.89Z"/>
    <path d="M54.7,25.2A6.80922,6.80922,0,0,0,47.89,32,15.8947,15.8947,0,0,1,37.77,46.79,9.87139,9.87139,0,0,1,39.9598,60.4,29.54234,29.54234,0,0,0,61.5,32,6.80708,6.80708,0,0,0,54.7,25.2Z"/>
    <path d="M32,16.11A15.8947,15.8947,0,0,1,46.79,26.23,9.76667,9.76667,0,0,1,60.4,24.04,29.54245,29.54245,0,0,0,32,2.5C22.99861,2.81786,23.003,15.79307,32,16.11Z"/>
    <path d="M9.3,38.8A6.80922,6.80922,0,0,0,16.11,32,15.89472,15.89472,0,0,1,26.23,17.21a9.87137,9.87137,0,0,1-2.18978-13.61A29.54241,29.54241,0,0,0,2.5,32,6.80708,6.80708,0,0,0,9.3,38.8Z"/>
    <path d="M32,29.07a2.93017,2.93017,0,0,0,.00009,5.86A2.93017,2.93017,0,0,0,32,29.07Z"/>
  </g>
</svg>
