<svg viewBox="0 0 200 151.81" xmlns="http://www.w3.org/2000/svg" preserveAspectRatio="xMidYMid meet">
  <g transform="matrix(-1.35593,0,0,-1.35593,143.39,83.39)" fill="#fff">
    <path d="M32,19.11A12.90151,12.90151,0,0,0,19.11,32c.70455,17.101,25.07807,17.096,25.78005-.0001A12.90153,12.90153,0,0,0,32,19.11Zm0,18.82c-7.8369-.24891-7.835-11.61228.00013-11.86C39.83689,26.31888,39.83506,37.68225,32,37.93Z"/>
    <path d="M32,47.89A15.89467,15.89467,0,0,1,17.21,37.77,9.76652,9.76652,0,0,1,3.6,39.96,29.54243,29.54243,0,0,0,32,61.5C41.00139,61.18214,40.997,48.20693,32,47.89Z"/>
    <path d="M54.7,25.2A6.80922,6.80922,0,0,0,47.89,32,15.8947,15.8947,0,0,1,37.77,46.79,9.87139,9.87139,0,0,1,39.9598,60.4,29.54234,29.54234,0,0,0,61.5,32,6.80708,6.80708,0,0,0,54.7,25.2Z"/>
    <path d="M32,16.11A15.8947,15.8947,0,0,1,46.79,26.23,9.76667,9.76667,0,0,1,60.4,24.04,29.54245,29.54245,0,0,0,32,2.5C22.99861,2.81786,23.003,15.79307,32,16.11Z"/>
    <path d="M9.3,38.8A6.80922,6.80922,0,0,0,16.11,32,15.89472,15.89472,0,0,1,26.23,17.21a9.87137,9.87137,0,0,1-2.18978-13.61A29.54241,29.54241,0,0,0,2.5,32,6.80708,6.80708,0,0,0,9.3,38.8Z"/>
    <path d="M32,29.07a2.93017,2.93017,0,0,0,.00009,5.86A2.93017,2.93017,0,0,0,32,29.07Z"/>
  </g>
  <g transform="matrix(3.66435,0,0,3.66435,-2.49175,78.38036)" fill="#fff">
    <path d="M13.46 11.4c0 -3.04 2.44 -5.5 5.54 -5.5 3.08 0 5.58 2.46 5.58 5.5 0 3 -2.5 5.46 -5.58 5.46 -3.1 0 -5.54 -2.46 -5.54 -5.46zM0.68 20v-0.58l0.72-0.8c0.18-0.2 0.3-0.42 0.3-0.7V8.1c0-0.24-0.12-0.48-0.3-0.68l-0.72-0.86v-0.56h4.22v0.56l-0.74 0.86c-0.18 0.2-0.28 0.44-0.28 0.68v4.38l6.36-5.06c0.26-0.2 0.4-0.52 0.4-0.84 0-0.08-0.02-0.14-0.02-0.2v-0.38h3v0.32l-0.7 0.32c-0.56 0.26-1.06 0.62-1.56 1l-5.9 4.6 3.16 3.02c2.52 2.42 6.02 3.86 9.72 3.86 2.48 0 5.5-0.44 6.74-2.64 0.24-0.12 0.46-0.24 0.64-0.38l1.04 1.6c-2.42 1.46-5.26 2.34-8.48 2.34 -3.94 0-7.92-1.36-10.58-3.8l-3.36-3.08 -0.46 0.36v4.42c0 0.24 0.08 0.48 0.28 0.68l0.74 0.8V20H0.68zM19.74 16c1.86 0 2.9-1.84 2.9-3.66 0-3.04-2.34-5.52-4.36-5.52 -1.74 0-2.7 1.56-2.7 3.48 0 3.02 2.14 5.7 4.16 5.7zM32.78 20l-4.44-11.66c-0.18-0.46-0.42-0.84-0.72-1.18l-0.58-0.6v-0.56h3.78v0.56l-0.28 0.58c-0.14 0.32-0.18 0.74-0.06 1.08l4.12 10.8 4.16-11.02c0.18-0.48 0.08-1.04-0.26-1.4v-0.6h2.36v0.6l-0.76 0.54c-0.18 0.14-0.36 0.36-0.46 0.62L34.98 20H32.78zM41 20v-0.54l0.9-0.96c0.1-0.12 0.16-0.22 0.24-0.4l4.74-12.1h2.16l4.76 12.06c0.08 0.2 0.2 0.32 0.36 0.46l1.1 0.94V20h-4.26v-0.54l0.1-0.06c0.5-0.34 0.68-0.92 0.46-1.48l-0.92-2.34H43.7l-1 2.52c-0.18 0.48-0.04 1.02 0.34 1.36V20H41zM44.38 14.78h5.96l-2.98-7.6z"/>
  </g>
</svg>
